# xmcd CD database file
#
# Track frame offsets:
#	150
#	25965
#	50020
#	76828
#	105785
#	136974
#	161666
#	185122
#	217533
#	235076
#	255760
#
# Disc length: 3642 seconds
#
# Revision: 1
# Processed by: cddbd v1.4PL0 Copyright (c) Steve Scherf et al.
# Submitted via: CDex 1.51
#
DISCID=7e0e380b
DTITLE=roland sante - the mystic town
DYEAR=2001
DGENRE=New Age
TTITLE0=the beautiful day
TTITLE1=equinox
TTITLE2=pulsing life
TTITLE3=mysterious seclusions
TTITLE4=touches of stars
TTITLE5=magic lanes
TTITLE6=memories
TTITLE7=awakening
TTITLE8=a town falling asleep
TTITLE9=a spring breeze
TTITLE10=tower clock from roznov (bonus)
EXTD=YEAR: 2001
EXTT0=
EXTT1=
EXTT2=
EXTT3=
EXTT4=
EXTT5=
EXTT6=
EXTT7=
EXTT8=
EXTT9=
EXTT10=
PLAYORDER=
